<svg width="544" height="371" viewBox="0 0 544 371" fill="none" xmlns="http://www.w3.org/2000/svg">
<g filter="url(#filter0_dd_1391_10512)">
<path d="M304.752 119.063H239.502C223.834 119.063 211.133 131.166 211.133 146.096V208.27C211.133 223.2 223.834 235.303 239.502 235.303H304.752C320.42 235.303 333.121 223.2 333.121 208.27V146.096C333.121 131.166 320.42 119.063 304.752 119.063Z" fill="#13637D"/>
</g>
<path d="M72.9805 363.25H100.624C125.888 363.25 146.37 343.734 146.37 319.66V185.015" stroke="white" stroke-width="1.49882"/>
<path d="M73.0547 7.75H75.6114H100.502C125.767 7.75 146.248 27.2658 146.248 51.3401V185.018" stroke="white" stroke-width="1.49882"/>
<path d="M146.701 185.176L201.007 185.176" stroke="white" stroke-width="1.49882"/>
<path d="M92.3945 120.224L146.7 120.224" stroke="white" stroke-width="1.49882"/>
<path d="M92.3945 241.403L146.7 241.403" stroke="white" stroke-width="1.49882"/>
<path d="M471.626 7.75H443.984C418.719 7.75 398.238 27.2658 398.238 51.3401V185.985" stroke="white" stroke-width="1.49882"/>
<path d="M471.553 363.253H468.997H444.106C418.842 363.253 398.361 343.737 398.361 319.663V185.984" stroke="white" stroke-width="1.49882"/>
<path d="M397.995 186.146H343.689" stroke="white" stroke-width="1.49882"/>
<path d="M452.302 120.224H397.996" stroke="white" stroke-width="1.49882"/>
<path d="M452.302 241.403H397.996" stroke="white" stroke-width="1.49882"/>
<path d="M46.5513 7.74935C46.5513 12.0292 50.1924 15.4987 54.6839 15.4987C59.1753 15.4987 62.8164 12.0292 62.8164 7.74935C62.8164 3.4695 59.1753 0 54.6839 0C50.1924 0 46.5513 3.4695 46.5513 7.74935Z" fill="#0098CA"/>
<path d="M46.5513 241.727C46.5513 246.007 50.1924 249.476 54.6839 249.476C59.1753 249.476 62.8164 246.007 62.8164 241.727C62.8164 237.447 59.1753 233.978 54.6839 233.978C50.1924 233.978 46.5513 237.447 46.5513 241.727Z" fill="#0098CA"/>
<path d="M46.5513 120.549C46.5513 124.829 50.1924 128.298 54.6839 128.298C59.1753 128.298 62.8164 124.829 62.8164 120.549C62.8164 116.269 59.1753 112.8 54.6839 112.8C50.1924 112.8 46.5513 116.269 46.5513 120.549Z" fill="#0098CA"/>
<path d="M46.5513 363.25C46.5513 367.53 50.1924 371 54.6839 371C59.1753 371 62.8164 367.53 62.8164 363.25C62.8164 358.97 59.1753 355.501 54.6839 355.501C50.1924 355.501 46.5513 358.97 46.5513 363.25Z" fill="#0098CA"/>
<path d="M498.06 363.251C498.06 358.971 494.419 355.501 489.927 355.501C485.436 355.501 481.795 358.971 481.795 363.251C481.795 367.531 485.436 371 489.927 371C494.419 371 498.06 367.531 498.06 363.251Z" fill="#0098CA"/>
<path d="M498.06 119.58C498.06 115.3 494.419 111.83 489.927 111.83C485.436 111.83 481.795 115.3 481.795 119.58C481.795 123.86 485.436 127.329 489.927 127.329C494.419 127.329 498.06 123.86 498.06 119.58Z" fill="#0098CA"/>
<path d="M498.06 240.757C498.06 236.478 494.419 233.008 489.927 233.008C485.436 233.008 481.795 236.478 481.795 240.757C481.795 245.037 485.436 248.507 489.927 248.507C494.419 248.507 498.06 245.037 498.06 240.757Z" fill="#0098CA"/>
<path d="M498.06 7.74968C498.06 3.46983 494.419 0.000332832 489.927 0.000332832C485.436 0.000332832 481.795 3.46983 481.795 7.74968C481.795 12.0295 485.436 15.499 489.927 15.499C494.419 15.499 498.06 12.0295 498.06 7.74968Z" fill="#0098CA"/>
<path d="M0.804688 7.50781H2.04692H36.3846" stroke="white" stroke-width="1.49882"/>
<path d="M0.804688 241.001H2.04692H36.3846" stroke="white" stroke-width="1.49882"/>
<path d="M0.804688 119.822H2.04692H36.3846" stroke="white" stroke-width="1.49882"/>
<path d="M0.804688 363.492H2.04692H36.3846" stroke="white" stroke-width="1.49882"/>
<path d="M543.804 363.492H542.562H508.225" stroke="white" stroke-width="1.49882"/>
<path d="M543.804 120.305H542.562H508.225" stroke="white" stroke-width="1.49882"/>
<path d="M543.804 241.483H542.562H508.225" stroke="white" stroke-width="1.49882"/>
<path d="M543.804 7.50781H542.562H508.225" stroke="white" stroke-width="1.49882"/>
<path d="M268.844 169.535C274.653 167.214 280.841 165.546 286.767 163.382L288.618 163.206L307.713 165.621C307.603 166.712 307.994 170.809 307.377 171.417C306.803 171.982 306.821 171.31 306.724 170.909C305.917 167.478 307.615 166.117 302.729 166.643C302.637 167.352 303.058 171.059 302.234 171.072C301.525 171.085 301.611 167.214 301.25 166.631C300.829 165.953 298.532 165.903 297.75 165.96C297.646 166.706 298.098 170.708 297.255 170.733C296.528 170.752 296.675 166.524 296.278 165.941C295.972 165.496 293.443 165.295 292.765 165.282V170.056C291.037 169.974 291.953 166.317 291.293 165.257C291.03 164.837 288.453 164.724 287.781 164.599V169.717L268.844 174.491V169.541V169.535Z" fill="white"/>
<path d="M268.844 175.507L288.282 170.389L307.719 172.095V176.191C306.052 176.799 306.864 174.165 306.076 173.613C305.936 173.512 302.857 172.998 302.735 173.117V176.53H301.739C301.69 176.003 301.488 173.268 301.379 173.142C301.256 173.004 297.909 172.609 297.75 172.772C297.658 173.481 298.08 177.188 297.255 177.201C296.504 177.213 296.62 173.236 296.376 172.822C296.076 172.314 293.456 172.434 292.771 172.434V177.207C291 177.232 292.118 172.967 291.134 172.239C290.56 171.813 288.599 172.239 287.787 172.089V176.862L269.534 180.826C269.29 181.033 268.85 180.532 268.85 180.444V175.495L268.844 175.507Z" fill="white"/>
<path d="M268.844 186.761V181.304L286.986 177.584C287.805 177.641 292.741 177.17 292.759 178.061C292.771 178.726 285.765 178.933 284.891 179.868C282.118 181.586 280.682 184.578 277.426 185.507C274.83 186.241 271.532 186.178 268.85 186.761H268.844Z" fill="white"/>
<path d="M267.851 175.846V180.795L253.233 184.032L252.982 180.092L267.851 175.846Z" fill="white"/>
<path d="M267.842 181.647C267.628 182.563 268.166 186.772 267.86 186.948L253.224 189.156C253.364 188.397 253.01 185.047 253.255 184.752C253.743 184.175 266.083 182.406 267.836 181.647H267.842Z" fill="white"/>
<path d="M262.196 176.189C261.897 176.817 260.284 177.193 259.691 177.224C258.903 177.268 255.873 176.516 255.55 176.861C255.269 177.162 256.197 178.705 254.554 178.228C254.976 176.892 253.589 175.957 252.581 176.547C252.178 176.785 252.654 178.285 252.526 178.68C252.159 179.815 242.41 181.528 240.791 182.318C240.089 182.243 240.748 179.708 240.309 179.1C240.486 178.335 250.657 175.656 252.129 174.885L262.184 176.177L262.196 176.189Z" fill="white"/>
<path d="M240.271 186.759C241.084 185.894 240.137 183.529 240.589 183.184L252.409 180.261C252.605 181.402 252.971 183.855 251.915 184.507L240.271 186.753V186.759Z" fill="white"/>
<path d="M252.565 185.054C252.48 186.095 252.95 188.786 251.826 189.263L240.275 190.85C241.002 190.034 240.171 187.588 240.275 187.444C240.641 186.923 251.075 185.399 252.565 185.054Z" fill="white"/>
<path d="M239.607 183.693C239.503 184.302 239.765 186.899 239.588 187.093C239.368 187.332 233.98 188.279 233.296 188.335C232.911 188.367 232.801 188.574 232.453 188.134C232.368 188.028 232.239 185.544 232.313 185.431C232.527 185.111 238.678 183.75 239.607 183.693Z" fill="white"/>
<path d="M239.599 179.257C239.446 179.997 239.843 182.173 239.556 182.619C239.36 182.926 233.539 184.156 232.623 184.369C232.891 183.478 232.03 182.004 232.604 181.471C233.05 181.057 239.348 178.981 239.599 179.257Z" fill="white"/>
<path d="M239.606 187.781C239.515 188.352 239.728 191.081 239.606 191.194C239.35 191.438 233.534 191.79 232.624 191.878C232.716 191.087 232.325 189.45 232.948 188.967C233.369 188.641 239.338 187.512 239.6 187.781H239.606Z" fill="white"/>
<path d="M301.227 207.064C301.227 207.064 252.501 190.173 223.066 198.163C223.066 198.163 282.179 201.341 301.227 207.064Z" fill="#31C4F5"/>
<path d="M292.947 206.929C292.947 206.929 241.531 197.349 223 202.255C223 202.255 284.561 205.127 292.947 206.929Z" fill="#31C4F5"/>
<path fill-rule="evenodd" clip-rule="evenodd" d="M320.422 183.285C321.246 182.629 322.056 181.983 322.538 181.42L322.532 181.427C324.316 179.346 322.239 178.681 320.4 178.23C313.864 176.632 295.727 178.262 288.635 179.534C285.947 180.016 284.542 181.007 282.624 182.912C282.564 182.972 282.505 183.025 282.449 183.075C282.202 183.297 282.019 183.462 282.123 183.927C284.177 183.899 286.291 183.653 288.409 183.407C291.053 183.099 293.702 182.791 296.246 182.906C296.346 182.91 296.471 182.897 296.602 182.884C297.007 182.842 297.467 182.794 297.407 183.244L232.173 192.84C231.71 192.99 231.568 193.551 231.595 194.187C238.535 193.251 258.009 193.088 285.78 199.953H309.203C310.002 199.783 310.177 198.919 310.351 198.058C310.428 197.681 310.504 197.305 310.632 196.989C312.312 192.815 315.281 188.358 318.323 185.106C318.861 184.529 319.648 183.902 320.422 183.285Z" fill="white"/>
<path fill-rule="evenodd" clip-rule="evenodd" d="M228.959 194.112C228.969 194.127 228.986 194.155 228.986 194.155C228.328 194.321 227.209 194.374 226.574 194.553C226.446 193.912 226.335 193.268 226.239 192.618C223.142 171.566 237.481 151.904 258.266 148.706C271.914 146.606 284.942 152.13 293.159 162.131L288.342 161.645L286.941 161.982C279.701 155.09 269.519 151.515 258.919 153.146C241.021 155.9 228.579 172.646 230.485 190.705C229.923 191.148 229.458 191.804 228.959 192.267C228.377 192.803 228.597 193.408 228.959 194.112Z" fill="#F66B4A"/>
<defs>
<filter id="filter0_dd_1391_10512" x="203.133" y="119.063" width="137.988" height="140.239" filterUnits="userSpaceOnUse" color-interpolation-filters="sRGB">
<feFlood flood-opacity="0" result="BackgroundImageFix"/>
<feColorMatrix in="SourceAlpha" type="matrix" values="0 0 0 0 0 0 0 0 0 0 0 0 0 0 0 0 0 0 127 0" result="hardAlpha"/>
<feMorphology radius="4" operator="erode" in="SourceAlpha" result="effect1_dropShadow_1391_10512"/>
<feOffset dy="4"/>
<feGaussianBlur stdDeviation="2"/>
<feComposite in2="hardAlpha" operator="out"/>
<feColorMatrix type="matrix" values="0 0 0 0 0.0470588 0 0 0 0 0.0470588 0 0 0 0 0.0509804 0 0 0 0.05 0"/>
<feBlend mode="normal" in2="BackgroundImageFix" result="effect1_dropShadow_1391_10512"/>
<feColorMatrix in="SourceAlpha" type="matrix" values="0 0 0 0 0 0 0 0 0 0 0 0 0 0 0 0 0 0 127 0" result="hardAlpha"/>
<feMorphology radius="8" operator="erode" in="SourceAlpha" result="effect2_dropShadow_1391_10512"/>
<feOffset dy="16"/>
<feGaussianBlur stdDeviation="8"/>
<feComposite in2="hardAlpha" operator="out"/>
<feColorMatrix type="matrix" values="0 0 0 0 0.0470588 0 0 0 0 0.0470588 0 0 0 0 0.0509804 0 0 0 0.1 0"/>
<feBlend mode="normal" in2="effect1_dropShadow_1391_10512" result="effect2_dropShadow_1391_10512"/>
<feBlend mode="normal" in="SourceGraphic" in2="effect2_dropShadow_1391_10512" result="shape"/>
</filter>
</defs>
</svg>
