<svg width="83" height="48" viewBox="0 0 83 48" fill="none" xmlns="http://www.w3.org/2000/svg">
<path d="M37.793 17.0625C42.5774 15.2011 47.6736 13.8629 52.5536 12.1272L54.078 11.9863L69.8046 13.9232C69.714 14.7986 70.036 18.0838 69.5279 18.5718C69.055 19.0245 69.07 18.4862 68.9896 18.1643C68.3255 15.4124 69.7241 14.3207 65.6993 14.7433C65.6239 15.3117 65.971 18.285 65.2918 18.2951C64.7083 18.3051 64.7787 15.2011 64.4819 14.7332C64.1347 14.1899 62.2431 14.1496 61.5992 14.1949C61.5136 14.7936 61.8859 18.0033 61.1917 18.0234C60.593 18.0385 60.7137 14.6477 60.3867 14.1798C60.1352 13.8226 58.0524 13.6616 57.494 13.6516V17.4801C56.0702 17.4147 56.8248 14.4817 56.2815 13.6314C56.0652 13.2944 53.9421 13.2038 53.3887 13.1032V17.2084L37.793 21.0369V17.0675V17.0625Z" fill="white"/>
<path d="M37.793 21.8523L53.8013 17.7471L69.8096 19.1155V22.4006C68.4362 22.8886 69.1053 20.7757 68.4563 20.333C68.3406 20.2525 65.805 19.8399 65.7044 19.9355V22.6723H64.8843C64.8441 22.2497 64.6781 20.0563 64.5875 19.9556C64.4869 19.845 61.73 19.528 61.5992 19.6588C61.5237 20.2273 61.8708 23.2006 61.1917 23.2106C60.5729 23.2207 60.6684 20.0311 60.4672 19.6991C60.2207 19.2916 58.0624 19.3871 57.499 19.3871V23.2157C56.04 23.2358 56.9607 19.8148 56.1507 19.2312C55.6778 18.8891 54.0629 19.2312 53.3938 19.1104V22.939L38.3615 26.1185C38.1602 26.2845 37.798 25.882 37.798 25.8116V21.8422L37.793 21.8523Z" fill="white"/>
<path d="M37.793 30.878V26.5011L52.7347 23.5178C53.4089 23.563 57.4738 23.1857 57.4889 23.9001C57.499 24.4334 51.7285 24.5994 51.0091 25.349C48.7251 26.7275 47.5428 29.1272 44.8614 29.8718C42.7232 30.4604 40.0066 30.4101 37.798 30.878H37.793Z" fill="white"/>
<path d="M36.9737 22.124V26.0934L24.9348 28.6893L24.7285 25.5299L36.9737 22.124Z" fill="white"/>
<path d="M36.9675 26.7773C36.7915 27.5119 37.2342 30.8876 36.9826 31.0285L24.9286 32.7993C25.0443 32.1906 24.7525 29.5041 24.9538 29.2676C25.3562 28.8048 35.5186 27.3861 36.9625 26.7773H36.9675Z" fill="white"/>
<path d="M32.3187 22.3999C32.0721 22.903 30.744 23.2049 30.256 23.23C29.607 23.2653 27.1117 22.6615 26.845 22.9382C26.6136 23.1797 27.3783 24.4173 26.025 24.035C26.3721 22.9634 25.2301 22.2138 24.4 22.6867C24.068 22.8779 24.4604 24.0803 24.3548 24.3972C24.0529 25.3078 16.0236 26.6812 14.6904 27.3151C14.1119 27.2548 14.6552 25.2223 14.293 24.7343C14.4389 24.1205 22.8153 21.9723 24.0277 21.3535L32.3086 22.3899L32.3187 22.3999Z" fill="white"/>
<path d="M14.2617 30.877C14.9308 30.1828 14.151 28.2861 14.5233 28.0094L24.2581 25.665C24.4191 26.5807 24.7209 28.5477 23.8506 29.071L14.2617 30.872V30.877Z" fill="white"/>
<path d="M24.3855 29.5088C24.3151 30.3439 24.7025 32.5022 23.7768 32.8845L14.2634 34.1573C14.8621 33.5033 14.1779 31.5413 14.2634 31.4256C14.5652 31.008 23.158 29.7855 24.3855 29.5088Z" fill="white"/>
<path d="M13.7143 28.418C13.6288 28.906 13.8451 30.9888 13.6992 31.1447C13.5181 31.3359 9.08082 32.0956 8.51736 32.1408C8.20042 32.166 8.10986 32.332 7.8231 31.9798C7.75267 31.8943 7.64702 29.9021 7.70739 29.8115C7.88347 29.555 12.9496 28.4632 13.7143 28.418Z" fill="white"/>
<path d="M13.7098 24.86C13.584 25.4537 13.9111 27.1994 13.6746 27.5566C13.5136 27.8031 8.71917 28.7892 7.96454 28.9602C8.1859 28.2458 7.47654 27.0636 7.94944 26.6359C8.3167 26.3039 13.5036 24.6387 13.7098 24.86Z" fill="white"/>
<path d="M13.7153 31.6971C13.6399 32.155 13.816 34.3434 13.7153 34.434C13.504 34.6302 8.71463 34.9119 7.96503 34.9823C8.04049 34.3484 7.71852 33.0354 8.23167 32.648C8.5788 32.3864 13.494 31.4808 13.7103 31.6971H13.7153Z" fill="white"/>
<path d="M64.4687 47.1574C64.4687 47.1574 24.3397 33.6106 0.0977746 40.0189C0.0977746 40.0189 48.7814 42.5674 64.4687 47.1574Z" fill="#31C4F5"/>
<path d="M57.6495 47.0502C57.6495 47.0502 15.3051 39.3673 0.0435251 43.3019C0.0435251 43.3019 50.7434 45.6051 57.6495 47.0502Z" fill="#31C4F5"/>
<path fill-rule="evenodd" clip-rule="evenodd" d="M80.2725 28.0888C80.9513 27.562 81.6186 27.044 82.0155 26.5929L82.0105 26.5979C83.4795 24.9291 81.769 24.3962 80.2547 24.0343C74.8717 22.7525 59.9349 24.0595 54.0941 25.0799C51.8805 25.4669 50.7234 26.2612 49.1437 27.7893C49.0944 27.8375 49.0457 27.8801 48.9997 27.9204C48.7963 28.0983 48.645 28.2306 48.7311 28.6036C50.4227 28.5812 52.164 28.3839 53.9081 28.1862C56.0856 27.9394 58.2675 27.6921 60.3626 27.7842C60.4449 27.7879 60.5478 27.7775 60.6555 27.7667C60.989 27.733 61.3679 27.6947 61.3184 28.0557L7.59351 35.7516C7.21291 35.8722 7.09566 36.3222 7.11782 36.8318C12.8335 36.0812 28.8726 35.9502 51.7443 41.4569H71.0331C71.6909 41.3206 71.8353 40.6273 71.979 39.9371C72.0419 39.6349 72.1046 39.3333 72.2103 39.0793C73.5938 35.7315 76.0388 32.1575 78.5442 29.5486C78.9876 29.0861 79.6351 28.5835 80.2725 28.0888Z" fill="white"/>
<path fill-rule="evenodd" clip-rule="evenodd" d="M4.94562 36.7719C4.95448 36.7843 4.96827 36.8064 4.96827 36.8064C4.42657 36.9392 3.50469 36.9821 2.98209 37.1259C2.87649 36.6116 2.78454 36.0952 2.70573 35.5735C0.155364 18.6891 11.964 2.91984 29.0819 0.354836C40.3221 -1.32944 51.0519 3.10099 57.819 11.1224L53.8514 10.7321L52.698 11.0024C46.7356 5.47492 38.3497 2.60806 29.6198 3.91618C14.8801 6.12483 4.63274 19.5556 6.20294 34.0396C5.74017 34.3947 5.35707 34.9204 4.94562 35.2919C4.46623 35.7217 4.6475 36.2073 4.94562 36.7719Z" fill="#F66B4A"/>
</svg>
