<svg width="160" height="25" viewBox="0 0 160 25" fill="none" xmlns="http://www.w3.org/2000/svg">
<path d="M158.969 18.8092H156.236L155.15 16.1449H150.127L149.041 18.8092H146.377L151.468 6.84534H153.878L158.969 18.8092ZM154.217 13.837L152.639 9.98478L151.061 13.837H154.217Z" fill="white"/>
<path d="M145.563 6.93018L140.761 18.894H138.453L133.65 6.93018H136.535L139.641 15.2964L142.746 6.93018H145.563Z" fill="white"/>
<path d="M132.352 12.8697C132.352 13.7182 132.194 14.5158 131.877 15.2625C131.56 15.9978 131.119 16.6483 130.553 17.214C129.999 17.7683 129.332 18.2096 128.551 18.5377C127.782 18.8544 126.939 19.0128 126.022 19.0128C125.106 19.0128 124.263 18.8544 123.494 18.5377C122.725 18.2096 122.057 17.774 121.491 17.231C120.937 16.6766 120.502 16.0318 120.185 15.2964C119.879 14.5497 119.727 13.7521 119.727 12.9036V12.8697C119.727 12.0212 119.885 11.2293 120.202 10.4939C120.518 9.74721 120.954 9.0967 121.508 8.54235C122.074 7.97668 122.742 7.53546 123.511 7.21869C124.291 6.89061 125.14 6.72656 126.056 6.72656C126.973 6.72656 127.816 6.89061 128.585 7.21869C129.354 7.53546 130.016 7.97103 130.57 8.52538C131.136 9.06842 131.572 9.71327 131.877 10.46C132.194 11.1953 132.352 11.9872 132.352 12.8357V12.8697ZM129.62 12.9036V12.8697C129.62 12.3606 129.53 11.8798 129.349 11.4272C129.179 10.9747 128.93 10.5787 128.602 10.2393C128.285 9.89994 127.906 9.63408 127.465 9.44175C127.024 9.23812 126.543 9.1363 126.022 9.1363C125.491 9.1363 125.004 9.23246 124.563 9.42478C124.133 9.61711 123.76 9.88297 123.443 10.2224C123.138 10.5618 122.894 10.9577 122.713 11.4103C122.544 11.8515 122.459 12.3266 122.459 12.8357V12.8697C122.459 13.3788 122.544 13.8596 122.713 14.3121C122.894 14.7647 123.143 15.1606 123.46 15.5C123.788 15.8394 124.167 16.1109 124.597 16.3146C125.038 16.5069 125.525 16.6031 126.056 16.6031C126.577 16.6031 127.058 16.5069 127.499 16.3146C127.94 16.1223 128.313 15.8564 128.619 15.517C128.936 15.1776 129.179 14.7873 129.349 14.3461C129.53 13.8935 129.62 13.4127 129.62 12.9036Z" fill="white"/>
<path d="M117.399 18.8091H115.176L109.423 11.2575V18.8091H106.844V6.93018H109.253L114.82 14.2442V6.93018H117.399V18.8091Z" fill="white"/>
<path d="M105.01 18.8092H102.278L101.191 16.1449H96.1683L95.0823 18.8092H92.418L97.509 6.84534H99.9187L105.01 18.8092ZM100.258 13.837L98.6799 9.98478L97.1017 13.837H100.258Z" fill="white"/>
<path d="M90.7755 13.6333C90.7755 14.5384 90.6511 15.3246 90.4022 15.9921C90.1646 16.6596 89.8195 17.2196 89.367 17.6722C88.9145 18.1134 88.3658 18.4471 87.7209 18.6734C87.0761 18.8883 86.3577 18.9958 85.5657 18.9958C83.9706 18.9958 82.7148 18.5546 81.7984 17.6722C80.882 16.7897 80.4238 15.4717 80.4238 13.7182V6.93018H83.0372V13.6503C83.0372 14.6232 83.2635 15.3586 83.716 15.8564C84.1685 16.3428 84.7964 16.5861 85.5997 16.5861C86.4029 16.5861 87.0308 16.3485 87.4833 15.8733C87.9359 15.3982 88.1621 14.6854 88.1621 13.7351V6.93018H90.7755V13.6333Z" fill="white"/>
<path d="M78.4633 17.3158L76.8003 19.1655L75.4936 17.9946C74.9845 18.3227 74.4358 18.5772 73.8475 18.7583C73.2592 18.928 72.6313 19.0128 71.9638 19.0128C71.0474 19.0128 70.2046 18.8544 69.4353 18.5376C68.666 18.2096 67.9985 17.774 67.4328 17.231C66.8785 16.6766 66.4429 16.0318 66.1262 15.2964C65.8207 14.5497 65.668 13.7521 65.668 12.9036V12.8697C65.668 12.0212 65.8264 11.2293 66.1431 10.4939C66.4599 9.74721 66.8955 9.0967 67.4498 8.54235C68.0155 7.97668 68.683 7.53546 69.4523 7.21869C70.2329 6.89061 71.0814 6.72656 71.9978 6.72656C72.9141 6.72656 73.757 6.89061 74.5263 7.21869C75.2956 7.53546 75.9574 7.97103 76.5118 8.52538C77.0774 9.06842 77.513 9.71327 77.8185 10.46C78.1352 11.1953 78.2936 11.9872 78.2936 12.8357V12.8697C78.2936 13.4919 78.2031 14.0915 78.0221 14.6685C77.8411 15.2455 77.5809 15.7829 77.2415 16.2806L78.4633 17.3158ZM75.5615 12.9036V12.8697C75.5615 12.3606 75.4709 11.8798 75.2899 11.4272C75.1202 10.9747 74.8713 10.5787 74.5433 10.2393C74.2265 9.89994 73.8475 9.63408 73.4063 9.44175C72.965 9.23811 72.4842 9.1363 71.9638 9.1363C71.4321 9.1363 70.9456 9.23246 70.5044 9.42478C70.0745 9.61711 69.7012 9.88297 69.3844 10.2224C69.0789 10.5618 68.8357 10.9577 68.6547 11.4103C68.485 11.8515 68.4001 12.3266 68.4001 12.8357V12.8697C68.4001 13.3788 68.485 13.8596 68.6547 14.3121C68.8357 14.7647 69.0846 15.1606 69.4014 15.5C69.7294 15.8394 70.1084 16.1109 70.5383 16.3146C70.9796 16.5069 71.466 16.6031 71.9978 16.6031C72.5521 16.6031 73.0725 16.4956 73.559 16.2806L71.6244 14.6346L73.2875 12.7679L75.239 14.5327C75.454 14.0576 75.5615 13.5145 75.5615 12.9036Z" fill="white"/>
<path d="M64.3593 18.809H61.6271L60.541 16.1448H55.5179L54.4319 18.809H51.7676L56.8586 6.84521H59.2683L64.3593 18.809ZM59.6077 13.8368L58.0295 9.98466L56.4513 13.8368H59.6077Z" fill="white"/>
<path d="M160.002 8.73322H159.575V7.45839L159.025 8.29247H159.014L158.47 7.46675V8.73322H158.049V6.78052H158.512L159.025 7.60623L159.538 6.78052H160.002V8.73322Z" fill="white"/>
<path d="M157.718 7.17676H157.123V8.73335H156.694V7.17676H156.1V6.78064H157.718V7.17676Z" fill="white"/>
<path d="M20.8516 8.97959C23.3694 8 26.0513 7.29576 28.6194 6.38236L29.4216 6.30823L37.6978 7.32753C37.6502 7.7882 37.8196 9.51704 37.5522 9.77385C37.3033 10.0121 37.3113 9.72884 37.2689 9.5594C36.9194 8.1112 37.6555 7.53668 35.5374 7.75908C35.4977 8.05825 35.6804 9.62294 35.323 9.62823C35.0159 9.63353 35.0529 8 34.8967 7.75378C34.714 7.46785 33.7186 7.44667 33.3797 7.47049C33.3347 7.78555 33.5306 9.47468 33.1652 9.48527C32.8502 9.49321 32.9137 7.70877 32.7416 7.46255C32.6093 7.27458 31.5132 7.18986 31.2193 7.18456V9.19933C30.47 9.16492 30.8672 7.6214 30.5812 7.17397C30.4674 6.99659 29.3501 6.94893 29.0589 6.89598V9.05637L20.8516 11.0711V8.98224V8.97959Z" fill="white"/>
<path d="M20.8516 11.5001L29.276 9.33972L37.7005 10.0599V11.7887C36.9777 12.0455 37.3298 10.9335 36.9883 10.7006C36.9274 10.6582 35.593 10.4411 35.5401 10.4914V11.9317H35.1085C35.0873 11.7093 35 10.5549 34.9523 10.502C34.8994 10.4437 33.4485 10.2769 33.3797 10.3458C33.34 10.645 33.5227 12.2096 33.1652 12.2149C32.8396 12.2202 32.8899 10.5417 32.784 10.367C32.6543 10.1525 31.5185 10.2028 31.2219 10.2028V12.2176C30.4542 12.2282 30.9387 10.4279 30.5124 10.1207C30.2635 9.94071 29.4137 10.1207 29.0616 10.0572V12.072L21.1507 13.7452C21.0448 13.8326 20.8542 13.6208 20.8542 13.5837V11.4948L20.8516 11.5001Z" fill="white"/>
<path d="M20.8516 16.2498V13.9464L28.7147 12.3764C29.0695 12.4002 31.2087 12.2017 31.2167 12.5776C31.2219 12.8583 28.1852 12.9456 27.8066 13.3401C26.6047 14.0655 25.9825 15.3284 24.5713 15.7202C23.4461 16.03 22.0165 16.0035 20.8542 16.2498H20.8516Z" fill="white"/>
<path d="M20.4207 11.6429V13.7318L14.0851 15.098L13.9766 13.4353L20.4207 11.6429Z" fill="white"/>
<path d="M20.4173 14.0919C20.3246 14.4785 20.5576 16.255 20.4253 16.3291L14.0818 17.261C14.1427 16.9407 13.9891 15.5269 14.095 15.4024C14.3068 15.1589 19.6548 14.4123 20.4147 14.0919H20.4173Z" fill="white"/>
<path d="M17.9705 11.7886C17.8408 12.0534 17.1418 12.2122 16.885 12.2254C16.5435 12.244 15.2303 11.9263 15.09 12.0719C14.9682 12.199 15.3706 12.8503 14.6584 12.649C14.8411 12.0851 14.2401 11.6906 13.8033 11.9395C13.6285 12.0401 13.835 12.6729 13.7794 12.8397C13.6206 13.3189 9.39513 14.0417 8.69353 14.3752C8.38906 14.3435 8.675 13.2739 8.48438 13.0171C8.56115 12.6941 12.9693 11.5636 13.6073 11.2379L17.9652 11.7833L17.9705 11.7886Z" fill="white"/>
<path d="M8.46875 16.2496C8.82087 15.8842 8.4105 14.8861 8.60642 14.7405L13.7294 13.5067C13.8141 13.9886 13.973 15.0237 13.5149 15.2991L8.46875 16.2469V16.2496Z" fill="white"/>
<path d="M13.7956 15.5294C13.7586 15.9689 13.9624 17.1047 13.4753 17.3059L8.4688 17.9757C8.78386 17.6316 8.4238 16.599 8.4688 16.5381C8.62766 16.3184 13.1496 15.675 13.7956 15.5294Z" fill="white"/>
<path d="M8.18036 14.9552C8.13535 15.212 8.24919 16.3081 8.17241 16.3902C8.0771 16.4908 5.74198 16.8905 5.44546 16.9144C5.27866 16.9276 5.23101 17.015 5.0801 16.8297C5.04303 16.7846 4.98743 15.7362 5.0192 15.6886C5.11187 15.5535 7.77793 14.979 8.18036 14.9552Z" fill="white"/>
<path d="M8.1775 13.0831C8.11132 13.3955 8.28341 14.3142 8.15897 14.5022C8.07425 14.6319 5.55115 15.1509 5.15402 15.2409C5.27051 14.8649 4.89721 14.2428 5.14608 14.0177C5.33935 13.843 8.06896 12.9666 8.1775 13.0831Z" fill="white"/>
<path d="M8.18134 16.6812C8.14163 16.9222 8.2343 18.0738 8.18134 18.1215C8.07015 18.2247 5.5497 18.373 5.15522 18.4101C5.19493 18.0765 5.02549 17.3855 5.29553 17.1816C5.47821 17.0439 8.06485 16.5674 8.1787 16.6812H8.18134Z" fill="white"/>
<path d="M34.8963 24.8173C34.8963 24.8173 13.7782 17.6883 1.02073 21.0607C1.02073 21.0607 26.6407 22.4018 34.8963 24.8173Z" fill="#31C4F5"/>
<path d="M31.3083 24.7606C31.3083 24.7606 9.02438 20.7175 0.992893 22.7881C0.992893 22.7881 27.6739 24.0001 31.3083 24.7606Z" fill="#31C4F5"/>
<path fill-rule="evenodd" clip-rule="evenodd" d="M43.2064 14.7817C43.5636 14.5044 43.9148 14.2318 44.1237 13.9944L44.121 13.9971C44.8941 13.1188 43.9939 12.8384 43.197 12.648C40.3642 11.9734 32.5037 12.6612 29.4299 13.1982C28.265 13.4019 27.656 13.8198 26.8247 14.624C26.7988 14.6494 26.7732 14.6718 26.7489 14.693C26.6419 14.7866 26.5623 14.8563 26.6076 15.0526C27.4978 15.0408 28.4141 14.9369 29.332 14.8329C30.4779 14.703 31.6262 14.5729 32.7287 14.6214C32.772 14.6233 32.8262 14.6178 32.8829 14.6121C33.0584 14.5944 33.2577 14.5743 33.2317 14.7642L4.95872 18.8142C4.75849 18.8777 4.69676 19.1144 4.70838 19.3825C7.71649 18.9875 16.1574 18.9186 28.1939 21.8167H38.3441C38.6903 21.7449 38.7663 21.3801 38.8419 21.0169C38.875 20.8578 38.908 20.6991 38.9636 20.5654C39.6917 18.8036 40.9784 16.9228 42.2969 15.5499C42.5302 15.3065 42.871 15.042 43.2064 14.7817Z" fill="white"/>
<path fill-rule="evenodd" clip-rule="evenodd" d="M3.5661 19.3514C3.57076 19.3579 3.57802 19.3695 3.57802 19.3695C3.29295 19.4394 2.80781 19.462 2.53278 19.5377C2.47721 19.267 2.42882 18.9953 2.38735 18.7207C1.04521 9.83523 7.25957 1.53658 16.2679 0.186734C22.1831 -0.699622 27.8298 1.63191 31.391 5.8532L29.303 5.64781L28.696 5.79006C25.5583 2.8812 21.1452 1.37251 16.551 2.06091C8.79417 3.22322 3.40145 10.2913 4.22777 17.9135C3.98424 18.1004 3.78263 18.3771 3.5661 18.5725C3.31382 18.7987 3.40921 19.0543 3.5661 19.3514Z" fill="#F66B4A"/>
</svg>
