<svg width="156" height="89" viewBox="0 0 156 89" fill="none" xmlns="http://www.w3.org/2000/svg">
<mask id="mask0_1336_11028" style="mask-type:alpha" maskUnits="userSpaceOnUse" x="0" y="0" width="93" height="89">
<rect width="72.8796" height="71.9214" transform="matrix(0.962227 0.272247 -0.302406 0.953179 22.1719 0.29834)" fill="#D9D9D9"/>
</mask>
<g mask="url(#mask0_1336_11028)">
<path d="M29.9036 72.4956L30.7217 62.8583C29.5647 62.061 28.5313 61.2008 27.6216 60.2776C26.7119 59.3545 25.8497 58.3469 25.035 57.2548L15.0128 57.4738L11.9033 45.3153L21.125 41.3453C21.3832 40.0085 21.7175 38.6932 22.128 37.3995C22.5384 36.1058 23.025 34.8337 23.5876 33.583L18.1967 25.4785L27.8733 16.9377L36.1169 22.3247C37.4332 21.8356 38.7401 21.4417 40.0375 21.143C41.3349 20.8443 42.6989 20.6624 44.1295 20.5972L49.0575 12.1227L61.8436 15.7403L61.0254 25.3777C62.1824 26.175 63.2158 27.0352 64.1255 27.9583C65.0353 28.8815 65.8975 29.8891 66.7122 30.9812L76.7344 30.7621L79.8439 42.9206L70.6222 46.8907C70.3639 48.2275 70.0296 49.5427 69.6192 50.8364C69.2087 52.1301 68.7222 53.4023 68.1595 54.6529L73.5505 62.7574L63.8739 71.2983L55.6302 65.9112C54.3139 66.4004 53.0071 66.7943 51.7097 67.0929C50.4123 67.3916 49.0483 67.5736 47.6176 67.6387L42.6896 76.1133L29.9036 72.4956ZM41.7692 57.055C45.5745 58.1317 49.2082 57.7891 52.67 56.0272C56.1319 54.2654 58.4328 51.5876 59.573 47.994C60.7131 44.4004 60.3503 40.9689 58.4846 37.6997C56.6189 34.4305 53.7834 32.2576 49.978 31.1809C46.1726 30.1042 42.539 30.4468 39.0771 32.2087C35.6153 33.9706 33.3143 36.6483 32.1742 40.242C31.0341 43.8356 31.3969 47.267 33.2626 50.5362C35.1282 53.8054 37.9638 55.9784 41.7692 57.055Z" fill="#F66B4A"/>
</g>
<path d="M76.4409 32.146L63.4571 37.3118L37.5859 64.0966L77.8038 66.7618L119.903 69.6492L132.604 68.8805L115.09 19.2314L92.7462 27.2671V32.7199L88.5189 33.5809L76.4409 32.146Z" fill="#F5F5F5"/>
<path d="M95.1816 29.2356C101.592 26.8803 108.42 25.1871 114.959 22.991L117.001 22.8127L138.072 25.2635C137.951 26.3711 138.382 30.5278 137.702 31.1453C137.068 31.7182 137.088 31.037 136.98 30.6296C136.091 27.1477 137.965 25.7664 132.572 26.3011C132.471 27.0204 132.936 30.7824 132.026 30.7951C131.244 30.8079 131.338 26.8803 130.941 26.2883C130.476 25.6009 127.941 25.5499 127.078 25.6072C126.964 26.3647 127.463 30.4259 126.532 30.4514C125.73 30.4705 125.892 26.1801 125.454 25.5881C125.117 25.1362 122.326 24.9325 121.578 24.9197V29.7639C119.67 29.6812 120.682 25.9701 119.954 24.8943C119.664 24.4678 116.819 24.3532 116.078 24.2259V29.4202L95.1816 34.2644V29.242V29.2356Z" fill="#13637D"/>
<path d="M95.1816 35.2951L116.63 30.1008L138.079 31.8323V35.989C136.239 36.6064 137.135 33.9329 136.266 33.3727C136.111 33.2709 132.714 32.7489 132.579 32.8698V36.3327H131.48C131.426 35.798 131.204 33.0226 131.082 32.8953C130.948 32.7553 127.254 32.3542 127.078 32.5197C126.977 33.239 127.442 37.0011 126.532 37.0138C125.703 37.0266 125.831 32.9908 125.562 32.5707C125.231 32.0551 122.34 32.176 121.585 32.176V37.0202C119.63 37.0457 120.864 32.7171 119.778 31.9787C119.145 31.5458 116.981 31.9787 116.084 31.8259V36.6701L95.9433 40.6931C95.6737 40.9032 95.1884 40.3939 95.1884 40.3048V35.2824L95.1816 35.2951Z" fill="#13637D"/>
<path d="M95.1816 46.7158V41.1778L115.201 37.403C116.105 37.4603 121.551 36.9829 121.571 37.8868C121.585 38.5615 113.853 38.7716 112.889 39.72C109.829 41.4642 108.245 44.5006 104.652 45.4427C101.787 46.1875 98.1475 46.1238 95.1884 46.7158H95.1816Z" fill="#13637D"/>
<path d="M94.0845 35.6387V40.6611L77.9541 43.9457L77.6777 39.9482L94.0845 35.6387Z" fill="#13637D"/>
<path d="M94.0772 41.5271C93.8412 42.4565 94.4344 46.7278 94.0974 46.906L77.9468 49.1467C78.1018 48.3764 77.7109 44.9772 77.9805 44.678C78.5197 44.0924 92.1359 42.2973 94.0704 41.5271H94.0772Z" fill="#13637D"/>
<path d="M87.849 35.9893C87.5187 36.6259 85.7392 37.0078 85.0853 37.0396C84.2158 37.0842 80.8724 36.3203 80.5152 36.6704C80.2051 36.976 81.2297 38.5419 79.4165 38.0581C79.8816 36.7023 78.3514 35.7538 77.2392 36.3522C76.7943 36.594 77.3201 38.1154 77.1786 38.5164C76.7741 39.6686 66.016 41.4064 64.2298 42.2085C63.4546 42.1321 64.1826 39.5604 63.6973 38.9429C63.8927 38.1663 75.1159 35.4482 76.7404 34.6653L87.8355 35.9766L87.849 35.9893Z" fill="#13637D"/>
<path d="M63.6562 46.7151C64.5528 45.8366 63.508 43.4368 64.0068 43.0867L77.0499 40.1204C77.2656 41.2789 77.6701 43.7678 76.5039 44.4298L63.6562 46.7087V46.7151Z" fill="#13637D"/>
<path d="M77.2188 44.9832C77.1244 46.0398 77.6434 48.7707 76.4031 49.2544L63.6566 50.8649C64.4587 50.0374 63.542 47.5548 63.6566 47.4084C64.061 46.8801 75.574 45.3333 77.2188 44.9832Z" fill="#13637D"/>
<path d="M62.922 43.6025C62.8074 44.22 63.0972 46.8553 62.9017 47.0527C62.6591 47.2946 56.7138 48.2558 55.9589 48.3131C55.5342 48.3449 55.4129 48.5549 55.0287 48.1094C54.9343 48.0011 54.7928 45.4804 54.8736 45.3658C55.1096 45.0412 61.8974 43.6598 62.922 43.6025Z" fill="#13637D"/>
<path d="M62.9154 39.1017C62.7469 39.8528 63.185 42.0617 62.8682 42.5136C62.6525 42.8256 56.2287 44.0732 55.2176 44.2896C55.5142 43.3857 54.5637 41.8898 55.1973 41.3488C55.6894 40.9286 62.639 38.8216 62.9154 39.1017Z" fill="#13637D"/>
<path d="M62.9205 47.7528C62.8194 48.3321 63.0553 51.1011 62.9205 51.2157C62.6374 51.4639 56.2203 51.8204 55.2159 51.9095C55.3171 51.1074 54.8857 49.446 55.5732 48.9559C56.0383 48.6249 62.6239 47.4791 62.9138 47.7528H62.9205Z" fill="#13637D"/>
<path d="M131.022 67.3148C131.022 67.3148 77.2553 50.1742 44.7747 58.2826C44.7747 58.2826 110.003 61.5071 131.022 67.3148Z" fill="#75CDEA"/>
<path d="M121.89 67.1784C121.89 67.1784 65.1546 57.4573 44.7063 62.4358C44.7063 62.4358 112.637 65.3499 121.89 67.1784Z" fill="#75CDEA"/>
<path fill-rule="evenodd" clip-rule="evenodd" d="M152.104 43.1846C153.013 42.518 153.907 41.8626 154.439 41.2918L154.432 41.2982C156.401 39.1866 154.109 38.5124 152.08 38.0545C144.867 36.4326 124.854 38.0863 117.029 39.3774C114.063 39.8671 112.512 40.8721 110.396 42.8056C110.33 42.8666 110.265 42.9205 110.203 42.9715C109.93 43.1965 109.728 43.364 109.843 43.8359C112.109 43.8077 114.443 43.5579 116.779 43.3078C119.697 42.9956 122.62 42.6827 125.427 42.7992C125.538 42.8039 125.676 42.7907 125.82 42.777C126.267 42.7343 126.774 42.6859 126.708 43.1427L54.7248 52.8802C54.2151 53.0327 54.0579 53.6016 54.0874 54.246C61.7477 53.2965 83.2377 53.1314 113.881 60.0991H139.724C140.606 59.9266 140.799 59.0495 140.992 58.1761C141.076 57.7938 141.16 57.4122 141.302 57.0907C143.155 52.8548 146.431 48.3326 149.788 45.0317C150.382 44.4465 151.25 43.8106 152.104 43.1846Z" fill="#13637D"/>
</svg>
